# xmcd
# 
# Track frame offsets:
#     150
#     19736
#     40869
#     66727
#     88903
#     104853
#     129541
#     154661
#     170168
#     188899
#     215102
#     234509
#     254106
#     278096
# 
# Disc length: 3977
# 
# Revision: 4
# Processed by: cddbd v1.5.2PL0 Copyright (c) Steve Scherf et al.
# Submitted via: BonkEnc v1.0.15
# 
DISCID=df0f870e
DTITLE=miwa - guitarissimo
DYEAR=2011
DGENRE=J-Rock
TTITLE0=ありえない!!
TTITLE1=don't cry anymore
TTITLE2=friend ～君が笑えば～
TTITLE3=春になったら
TTITLE4=hys-
TTITLE5=オトシモノ
TTITLE6=Dear days
TTITLE7=醒めない夢
TTITLE8=chAngE
TTITLE9=めぐろ川 (strings version)
TTITLE10=ハツナツ
TTITLE11=リトルガール
TTITLE12=僕らの未来
TTITLE13=つよくなりたい
EXTD=YEAR: 2011
EXTT0=
EXTT1=
EXTT2=
EXTT3=
EXTT4=
EXTT5=
EXTT6=
EXTT7=
EXTT8=
EXTT9=
EXTT10=
EXTT11=
EXTT12=
EXTT13=
PLAYORDER=
